<?xml version="1.0" encoding="UTF-8" standalone="no"?><!DOCTYPE svg PUBLIC "-//W3C//DTD SVG 1.1//EN" "http://www.w3.org/Graphics/SVG/1.1/DTD/svg11.dtd"><svg width="100%" height="100%" viewBox="0 0 600 250" version="1.1" xmlns="http://www.w3.org/2000/svg" xmlns:xlink="http://www.w3.org/1999/xlink" xml:space="preserve" xmlns:serif="http://www.serif.com/" style="fill-rule:evenodd;clip-rule:evenodd;stroke-linejoin:round;stroke-miterlimit:2;"><rect id="logo_text_only" x="-0" y="0" width="600" height="250" style="fill:none;"/><path d="M9.684,176.387c-0,-14.502 5.149,-26.862 15.447,-37.079c10.298,-10.218 22.735,-15.327 37.312,-15.327c14.577,-0 26.991,5.132 37.242,15.396c4.984,4.992 8.816,10.736 11.497,17.234c2.68,6.498 4.02,13.184 4.02,20.058c0,6.874 -1.293,13.49 -3.879,19.847c-2.587,6.357 -6.395,12.078 -11.427,17.163c-5.031,5.085 -10.744,8.946 -17.139,11.582c-6.395,2.637 -13.167,3.956 -20.314,3.956c-14.295,-0 -26.662,-5.18 -37.101,-15.538c-10.439,-10.359 -15.658,-22.79 -15.658,-37.292Zm35.408,16.536c2.727,4.524 5.572,8.247 8.534,11.167c2.963,2.921 5.925,5.041 8.887,6.361c2.963,1.319 5.855,1.979 8.676,1.979c5.079,-0 9.475,-1.72 13.19,-5.159c3.715,-3.439 5.572,-7.797 5.572,-13.074c0,-3.205 -0.282,-6.197 -0.846,-8.977c-0.565,-2.779 -1.646,-6.855 -3.245,-12.227c-1.881,-6.501 -4.984,-12.485 -9.31,-17.951c-3.198,-4.051 -6.536,-7.302 -10.016,-9.753c-1.693,-1.225 -3.55,-2.166 -5.572,-2.826c-2.022,-0.66 -3.833,-0.99 -5.431,-0.99c-3.292,0 -6.466,0.989 -9.522,2.968c-3.057,1.979 -5.949,4.664 -8.676,8.057c-0.752,0.942 -1.317,2.167 -1.693,3.675c-0.376,1.507 -0.564,3.11 -0.564,4.807c-0,5.183 1.411,11.59 4.232,19.223c2.069,5.559 3.997,9.799 5.784,12.72Zm73.637,-53.002l-0,-14.247c6.561,0.94 13.543,1.41 20.946,1.41c7.405,0 14.434,-0.47 21.087,-1.41c0.751,3.479 1.642,6.254 2.673,8.323c1.031,2.069 3.139,5.595 6.325,10.58l30.929,47.68l-0,-40.063c-0,-8.182 -3.198,-12.273 -9.593,-12.273l-0.987,0l-0,-14.247c5.548,0.94 11.473,1.41 17.774,1.41c6.301,0 12.273,-0.47 17.916,-1.41l-0,14.106l-1.003,0.141c-4.58,0.377 -7.395,2.869 -8.444,7.477l-0.287,2.116l0,57.555c0,5.643 0.47,10.815 1.411,15.518l0.987,4.514c-4.984,-0.941 -10.251,-1.411 -15.799,-1.411c-5.455,0 -10.674,0.47 -15.659,1.411c-0.564,-3.01 -1.457,-5.643 -2.68,-7.9c-0.47,-0.94 -1.787,-3.056 -3.95,-6.348l-36.113,-54.311l-0,44.577l0.286,2.116c1.144,4.703 4.147,7.242 9.011,7.618l1.001,0l-0,14.248c-1.975,-0.376 -4.679,-0.658 -8.112,-0.847c-3.432,-0.188 -6.371,-0.282 -8.816,-0.282l-10.298,0l-8.605,1.129l-0,-14.248l1,0c4.581,-0.376 7.443,-2.915 8.588,-7.618l0.286,-2.116l0,-55.721c-1.128,-4.608 -4.043,-7.1 -8.746,-7.477l-1.128,0Zm109.327,87.18l-0,-14.107l0.987,0c4.608,-0.376 7.477,-2.915 8.605,-7.617l0.282,-2.116l0.142,-1.552l-0,-6.913l0.141,-40.733l-0,-2.687l-0.141,-1.838l-0.283,-2.12c-1.128,-4.62 -3.949,-7.119 -8.464,-7.497l-0.987,0l-0,-14.247c7.806,0.94 15.988,1.41 24.546,1.41c8.652,0 16.787,-0.47 24.404,-1.41l0,14.106l-0.987,0.141c-4.891,0.377 -7.806,2.869 -8.746,7.477l-0.424,2.116l0,52.592c0,2.828 0.353,4.973 1.058,6.435c0.706,1.461 1.999,2.663 3.88,3.605l2.821,0.848l7.477,0c3.573,0 6.16,-1.304 7.758,-3.912c0.565,-0.839 1.105,-2.47 1.623,-4.892c0.517,-2.423 1.199,-4.053 2.045,-4.891c0.846,-0.839 2.586,-1.258 5.22,-1.258l9.028,0c-0.847,6.084 -1.27,12.12 -1.27,18.11l0,4.562c0,1.17 0.188,3.299 0.564,6.388c-3.573,-0 -6.771,-0.094 -9.592,-0.282c-9.969,-0.659 -15.188,-0.988 -15.659,-0.988c-9.874,0 -19.373,0.024 -28.495,0.071c-9.122,0.047 -17.633,0.447 -25.533,1.199Zm82.806,-0l0,-14.248l0.988,0c4.702,-0.376 7.617,-2.868 8.746,-7.476l0.282,-2.258l0.141,-1.692l0,-6.772l0.141,-40.627l0,-4.514c0,-6.395 -3.009,-9.593 -9.028,-9.593l-0.988,0l0,-14.247c0.282,-0 2.822,0.235 7.618,0.705c2.069,0.188 3.621,0.282 4.655,0.282l16.787,0c7.242,0 13.966,-0.329 20.173,-0.987l-0,14.106l-0.988,0.141c-6.113,0 -9.169,3.997 -9.169,11.991l-0,51.207c-0,3.01 0.776,5.385 2.328,7.124c1.551,1.74 3.644,2.61 6.277,2.61l1.129,0l-0,14.248c-7.806,-0.941 -15.988,-1.411 -24.546,-1.411c-8.558,0 -16.74,0.47 -24.546,1.411Zm51.49,-87.18l-0,-14.247c6.561,0.94 13.543,1.41 20.946,1.41c7.404,0 14.434,-0.47 21.087,-1.41c0.751,3.479 1.642,6.254 2.673,8.323c1.031,2.069 3.139,5.595 6.325,10.58l30.929,47.68l-0,-40.063c-0,-8.182 -3.198,-12.273 -9.593,-12.273l-0.987,0l-0,-14.247c5.548,0.94 11.473,1.41 17.774,1.41c6.301,0 12.273,-0.47 17.916,-1.41l-0,14.106l-1.003,0.141c-4.581,0.377 -7.395,2.869 -8.444,7.477l-0.287,2.116l-0,57.555c-0,5.643 0.47,10.815 1.411,15.518l0.987,4.514c-4.984,-0.941 -10.251,-1.411 -15.799,-1.411c-5.455,0 -10.674,0.47 -15.659,1.411c-0.564,-3.01 -1.458,-5.643 -2.68,-7.9c-0.47,-0.94 -1.787,-3.056 -3.95,-6.348l-36.113,-54.311l-0,44.577l0.286,2.116c1.144,4.703 4.147,7.242 9.011,7.618l1.001,0l-0,14.248c-1.975,-0.376 -4.679,-0.658 -8.112,-0.847c-3.432,-0.188 -6.371,-0.282 -8.816,-0.282l-10.298,0l-8.605,1.129l-0,-14.248l1,0c4.581,-0.376 7.443,-2.915 8.588,-7.618l0.286,-2.116l0,-55.721c-1.128,-4.608 -4.044,-7.1 -8.746,-7.477l-1.128,0Zm109.327,87.18l-0,-13.966l1.128,0c4.891,0 7.947,-2.551 9.17,-7.655l0.282,-2.125l-0,-1.276l0.141,-3.26l-0,-3.826l-0.141,-40.965l-0,-4.514l-0.423,-2.116c-0.565,-2.445 -1.576,-4.303 -3.033,-5.572c-1.458,-1.27 -3.457,-1.905 -5.996,-1.905l-0.987,0l-0,-14.247c4.984,-0 12.343,0.164 22.077,0.493c9.733,0.329 17.045,0.494 21.936,0.494l9.028,-0.423l7.759,-0l18.621,-0.564c-0.189,1.316 -0.353,3.385 -0.494,6.207c-0.141,2.821 -0.212,5.736 -0.212,8.746c0,4.984 0.188,9.498 0.564,13.542l-6.489,-0.141l-4.232,0c-2.633,-0.095 -4.232,-1.758 -4.796,-4.988l-0.141,-1.142l-0.141,-1.139l-0.282,-1.426c-0.564,-3.326 -2.963,-4.988 -7.195,-4.988l-7.194,-0c-6.489,-0 -9.734,3.922 -9.734,11.765l-0.141,2.269l0,7.511c0,2.93 0.329,4.868 0.988,5.813c0.658,0.945 2.022,1.512 4.091,1.701l5.642,0c1.505,0 2.728,-0.72 3.668,-2.16l0.423,-0.575l0.282,-0.721l0.565,-1.153l0.282,-0.432c0.282,-0.576 0.94,-1.103 1.975,-1.582l0.846,-0.146l0.423,-0.143l9.452,0l-0.564,13.684l0.423,13.965l-6.348,0c-2.822,0 -4.796,-0.611 -5.925,-1.834l-0.282,-0.564l-0.564,-0.846l-0.424,-0.847l-0.423,-0.705l-1.128,-1.693c-1.223,-0.94 -2.728,-1.41 -4.514,-1.41l-4.797,-0c-2.633,0.574 -3.95,2.154 -3.95,4.741l-0.141,1.726l0,10.489c0,4.98 0.565,8.428 1.693,10.344c1.129,1.917 3.198,3.114 6.207,3.593l6.489,0c3.01,0 5.267,-0.522 6.771,-1.566c1.505,-1.044 2.587,-2.847 3.245,-5.41l0.423,-1.567c1.035,-4.555 3.48,-6.833 7.336,-6.833l8.605,-0c-0.376,4.608 -0.588,7.853 -0.635,9.734c-0.047,1.88 -0.071,3.385 -0.071,4.514c0,2.445 0.047,4.961 0.141,7.547c0.094,2.586 0.283,5.102 0.565,7.547l-7.054,-0l-14.247,-0.988l-33.998,0l-17.069,0.988l-7.476,-0Zm88.026,-12.978c-0,-4.42 1.504,-8.041 4.514,-10.862c3.009,-3.01 6.63,-4.515 10.862,-4.515c4.232,0 7.829,1.505 10.792,4.515c2.962,3.009 4.443,6.677 4.443,11.003c0,4.326 -1.481,7.947 -4.443,10.862c-2.963,2.915 -6.607,4.373 -10.933,4.373c-4.232,0 -7.806,-1.505 -10.721,-4.514c-1.505,-1.411 -2.634,-3.033 -3.386,-4.867c-0.752,-1.834 -1.128,-3.832 -1.128,-5.995Zm-546.331,-161.065l0,-9.282c1.716,0.184 3.217,0.337 4.503,0.459c1.287,0.123 2.39,0.184 3.309,0.184c1.899,0 4.626,0.031 8.18,0.092c3.553,0.061 6.065,0.092 7.536,0.092l6.433,-0.459l7.352,-0c0.736,-0 1.287,0.03 1.655,0.091c5.698,0.734 10.017,2.459 12.958,5.177c2.941,2.718 4.412,6.185 4.412,10.4c-0,3.421 -1.026,6.398 -3.079,8.933c-2.053,2.535 -5.009,4.384 -8.869,5.545l-1.654,0.366l1.838,0.366c4.289,0.979 7.674,2.965 10.156,5.959c2.481,2.994 3.722,6.508 3.722,10.543c-0,1.16 -0.153,2.443 -0.46,3.85c-2.022,9.838 -10.446,14.757 -25.274,14.757l-4.044,-0.275l-6.709,-0.644c-1.348,-0.061 -2.604,-0.137 -3.768,-0.229c-1.164,-0.092 -2.542,-0.138 -4.136,-0.138c-2.328,-0 -4.442,0.076 -6.341,0.23c-1.899,0.153 -4.442,0.413 -7.628,0.781l-0,-9.283l0.652,0c3.045,-0.245 4.941,-1.868 5.687,-4.871l0.186,-1.47l0,-34.924l-0.276,-1.379c-0.612,-3.002 -2.481,-4.626 -5.606,-4.871l-0.735,0Zm29.961,47.425c0.245,0.06 0.643,0.09 1.195,0.09c2.144,0 3.906,-0.906 5.284,-2.718c1.379,-1.812 2.068,-4.289 2.068,-7.43c0,-2.114 -0.475,-3.865 -1.424,-5.254c-0.95,-1.389 -2.145,-2.371 -3.585,-2.945c-1.439,-0.574 -2.711,-0.861 -3.814,-0.861c-1.348,0 -2.42,0.332 -3.216,0.997c-0.797,0.664 -1.287,1.57 -1.471,2.718l0,9.241c0,3.443 1.655,5.497 4.963,6.162Zm-0.643,-29.411c4.656,-0 7.26,-2.525 7.812,-7.575c0.061,-0.37 0.092,-0.924 0.092,-1.663c-0,-1.848 -0.383,-3.449 -1.149,-4.804c-0.766,-1.355 -1.823,-2.371 -3.171,-3.048l-1.47,-0.463c-0.736,-0.184 -1.379,-0.277 -1.93,-0.277c-2.696,0 -4.044,1.817 -4.044,5.451l-0,8.222c0.306,1.293 0.521,2.032 0.643,2.217c0.613,1.293 1.685,1.94 3.217,1.94Zm43.103,38.049c-1.899,-0 -4.411,0.122 -7.536,0.367c-1.042,0.061 -2.451,0.184 -4.228,0.368l0,-9.283c2.451,0 4.626,-1.654 6.526,-4.964l0.735,-1.38l2.298,-5.424l3.032,-7.816c3.003,-7.907 5.453,-14.68 7.353,-20.318c1.715,-5.088 3.462,-10.727 5.238,-16.918c1.226,0.251 2.65,0.471 4.274,0.659c1.624,0.189 3.109,0.283 4.457,0.283c1.838,0 3.569,-0.063 5.193,-0.188c1.624,-0.126 3.201,-0.377 4.733,-0.754l2.757,9.103c2.635,8.703 4.749,15.415 6.342,20.134c1.96,5.885 4.227,11.984 6.801,18.297l1.194,2.942l0.736,1.38c1.899,3.31 4.227,4.964 6.985,4.964l-0,9.283c-2.513,-0.307 -5.239,-0.552 -8.18,-0.735c-2.941,-0.184 -5.821,-0.276 -8.639,-0.276c-6.066,-0 -11.672,0.337 -16.819,1.011l0,-9.283l0.644,0c3.063,0 4.595,-1.623 4.595,-4.871c-0,-0.612 -0.031,-1.102 -0.092,-1.47c-0,-1.593 -0.184,-2.573 -0.551,-2.941c-0.184,-0.245 -0.307,-0.429 -0.368,-0.552c-0.306,-0.367 -0.552,-0.551 -0.735,-0.551l-15.808,0c-0.49,0 -0.95,0.061 -1.379,0.184c-0.122,-0 -0.306,0.092 -0.551,0.276l-1.379,3.584l-0.275,1.378c-0,3.064 1.409,4.718 4.227,4.963l0.552,0l-0,9.283c-1.838,-0.184 -3.278,-0.307 -4.32,-0.368c-3.247,-0.245 -5.851,-0.367 -7.812,-0.367Zm12.683,-30.605c-0.306,1.164 0.674,1.746 2.941,1.746l5.606,0c1.838,0 2.604,-0.643 2.298,-1.93l-4.963,-17.37l-5.882,17.554Zm47.147,-25.458l0,-9.282l7.721,0.643l14.015,0c1.195,0 2.344,-0.03 3.446,-0.092l2.666,-0.183l2.665,-0.276l8.088,-0c0.612,0.122 1.072,0.184 1.378,0.184c5.515,0.922 9.757,2.903 12.729,5.944c2.972,3.041 4.457,6.927 4.457,11.657c0,4.177 -0.919,7.755 -2.757,10.734c-1.838,2.979 -4.35,5.022 -7.536,6.128l-0.919,0.277l-0.827,-0l0.459,0.461l1.379,1.108c1.348,1.107 2.451,2.137 3.309,3.091c0.857,0.954 1.746,2.17 2.665,3.646l0.919,1.384l3.4,5.816l2.849,3.968c1.348,1.477 2.359,2.246 3.033,2.307l0.736,0l-0,9.283c-2.996,-0.613 -6.174,-0.919 -9.536,-0.919c-3.362,-0 -6.571,0.306 -9.627,0.919l-2.292,-3.676c-1.222,-1.961 -2.2,-3.615 -2.933,-4.963c-0.917,-1.716 -1.895,-3.707 -2.934,-5.974l-4.31,-9.283l-0.459,-0.827c-0.672,-1.103 -1.253,-1.868 -1.741,-2.297c-0.489,-0.429 -0.947,-0.674 -1.375,-0.736c-1.162,-0.122 -1.987,0.077 -2.476,0.598c-0.489,0.521 -0.734,1.547 -0.734,3.079l0,5.514c0,3.186 0.454,5.484 1.36,6.893c0.907,1.409 2.417,2.206 4.532,2.389l0.725,0l0,9.283c-2.389,-0.307 -4.993,-0.552 -7.812,-0.735c-2.818,-0.184 -5.575,-0.276 -8.271,-0.276c-2.451,-0 -5.055,0.092 -7.812,0.276c-2.757,0.183 -5.453,0.428 -8.088,0.735l0,-9.283l0.644,0c3.125,-0.245 5.055,-1.868 5.79,-4.871l0.184,-1.47c-0,-2.819 0.03,-8.302 0.091,-16.451c0.062,-8.149 0.092,-12.806 0.092,-13.97l0,-5.79c-0.061,0 -0.092,-0.03 -0.092,-0.092c-0.735,-2.941 -2.757,-4.564 -6.065,-4.871l-0.736,0Zm29.962,18.657c2.634,0 4.702,-0.812 6.203,-2.435c1.501,-1.624 2.252,-4.06 2.252,-7.307c-0,-2.818 -0.735,-4.963 -2.206,-6.433c-1.47,-1.471 -3.431,-2.206 -5.882,-2.206c-3.247,0 -4.871,1.991 -4.871,5.974l0,8.088c0,1.47 0.322,2.558 0.965,3.262c0.644,0.705 1.823,1.057 3.539,1.057Zm59.278,38.141l0,-9.283c2.451,0 4.626,-1.654 6.526,-4.963l0.735,-1.378l0.276,-0.552l0.919,-2.389l1.103,-2.482l3.032,-7.811c3.003,-7.904 5.453,-14.675 7.353,-20.311c1.715,-5.086 3.462,-10.723 5.238,-16.911c3.248,0.674 6.372,1.011 9.375,1.011c1.409,-0 2.925,-0.092 4.549,-0.276c1.624,-0.184 3.201,-0.429 4.733,-0.735l1.195,3.768l1.562,5.331c2.329,7.965 4.442,14.704 6.342,20.219c1.715,5.024 3.982,11.09 6.801,18.197l0.735,1.93l0.459,1.011l0.736,1.378c1.899,3.309 4.227,4.963 6.984,4.963l0,9.283c-2.512,-0.307 -5.238,-0.552 -8.179,-0.735c-2.941,-0.184 -5.821,-0.276 -8.639,-0.276c-2.512,-0 -5.254,0.092 -8.226,0.276c-2.971,0.183 -5.836,0.428 -8.593,0.735l0,-9.283l0.644,0c3.063,0 4.595,-1.653 4.595,-4.958c-0,-0.624 -0.031,-1.124 -0.092,-1.498c-0,-1.434 -0.184,-2.432 -0.552,-2.993l-0.275,-0.281c-0.307,-0.437 -0.521,-0.655 -0.644,-0.655l-15.991,0c-0.797,0 -1.44,0.153 -1.93,0.46l-0.368,0.275l-0.184,0.184l-0.551,1.93l-0.276,1.195l-0.275,1.378c-0,3.064 1.409,4.718 4.227,4.963l0.552,0l-0,9.283c-3.677,-0.613 -7.659,-0.919 -11.948,-0.919c-4.228,-0 -8.21,0.306 -11.948,0.919Zm24.447,-31.34c-0.184,0.613 -0.046,1.057 0.414,1.333c0.459,0.275 1.302,0.413 2.527,0.413l5.606,0c1.9,0 2.666,-0.643 2.298,-1.93l-0.276,-0.919l0,-0.551l-4.635,-15.9l-5.378,15.9l-0.556,1.654Zm-3.033,-49.182l9.742,-8.833l12.775,12.238l-7.352,6.809c-4.779,-3.864 -9.834,-7.269 -15.165,-10.214Zm71.87,78.224c0.245,-2.65 0.383,-4.498 0.414,-5.546c0.03,-1.047 0.046,-1.91 0.046,-2.587l-0,-8.134l4.043,0.092c2.512,-0 4.151,0.278 4.917,0.835c0.766,0.557 1.149,1.731 1.149,3.525l0,1.112c0,1.423 0.276,2.444 0.827,3.062c0.552,0.619 1.471,1.051 2.757,1.298c0.246,0.062 0.644,0.094 1.195,0.094c1.226,-0 2.237,-0.446 3.033,-1.336c0.797,-0.89 1.195,-2.133 1.195,-3.729l-0,-33.978c-0,-3.192 -0.453,-5.478 -1.36,-6.86c-0.907,-1.381 -2.448,-2.164 -4.624,-2.348l-0.725,0l-0,-9.282c2.389,0.306 4.993,0.551 7.812,0.735c2.818,0.184 5.545,0.276 8.179,0.276c2.512,-0 5.147,-0.092 7.904,-0.276c2.757,-0.184 5.453,-0.429 8.088,-0.735l-0,9.19l-0.644,0.092c-3.002,0.245 -4.871,1.872 -5.606,4.879l-0.184,1.381l-0.091,1.012l-0,33.415c-0,5.829 -1.548,10.202 -4.642,13.117c-3.094,2.915 -8.041,4.372 -14.842,4.372c-1.532,0 -3.171,-0.092 -4.917,-0.275c-1.746,-0.184 -3.523,-0.46 -5.331,-0.828c-1.807,-0.367 -3.661,-0.857 -5.56,-1.47l-1.562,-0.551l-1.471,-0.552Zm46.688,2.298l-0,-9.099l0.735,0c3.186,0 5.177,-1.662 5.974,-4.987l0.184,-1.384l-0,-0.832l0.092,-2.124l-0,-2.493l-0.092,-26.688l-0,-2.941l-0.276,-1.379c-0.368,-1.593 -1.026,-2.803 -1.976,-3.63c-0.95,-0.827 -2.252,-1.241 -3.906,-1.241l-0.643,0l-0,-9.282c3.247,-0 8.041,0.107 14.383,0.322c6.341,0.214 11.105,0.321 14.291,0.321l5.882,-0.275l5.055,-0l12.131,-0.368c-0.122,0.858 -0.229,2.206 -0.321,4.044c-0.092,1.838 -0.138,3.737 -0.138,5.698c-0,3.247 0.122,6.188 0.367,8.823l-4.227,-0.092l-2.757,-0c-1.716,-0.062 -2.757,-1.146 -3.125,-3.25l-0.184,-1.486l-0.184,-0.929c-0.367,-2.167 -1.93,-3.25 -4.687,-3.25l-4.687,0c-4.228,0 -6.341,2.555 -6.341,7.666l-0.092,1.477l-0,4.894c-0,1.909 0.214,3.171 0.643,3.787c0.429,0.616 1.317,0.985 2.665,1.109l3.676,-0c0.981,-0 1.777,-0.47 2.39,-1.408l0.276,-0.375l0.183,-0.469l0.368,-0.751l0.184,-0.282c0.184,-0.375 0.613,-0.719 1.287,-1.031l0.551,-0.094l0.276,-0.094l6.157,0l-0.367,8.915l0.275,9.099l-4.135,-0c-1.838,-0 -3.125,-0.399 -3.86,-1.195l-0.184,-0.368l-0.368,-0.551l-0.275,-0.552l-0.276,-0.459l-0.735,-1.103c-0.797,-0.613 -1.777,-0.919 -2.941,-0.919l-3.125,-0c-1.716,0.374 -2.573,1.404 -2.573,3.089l-0.092,1.124l-0,6.834c-0,3.245 0.367,5.491 1.102,6.739c0.736,1.249 2.084,2.029 4.044,2.341l4.228,0c1.961,0 3.431,-0.34 4.411,-1.02c0.981,-0.68 1.685,-1.855 2.114,-3.525l0.276,-1.021c0.674,-2.968 2.267,-4.452 4.779,-4.452l5.606,0c-0.245,3.003 -0.383,5.117 -0.413,6.342c-0.031,1.225 -0.046,2.206 -0.046,2.941c-0,1.593 0.03,3.232 0.092,4.917c0.061,1.685 0.183,3.324 0.367,4.917l-4.595,-0l-9.282,-0.644l-22.15,0l-11.12,0.644l-4.871,-0Zm55.97,-56.798l0,-9.282c2.39,0.306 4.994,0.551 7.812,0.735c2.818,0.184 5.545,0.276 8.18,0.276c2.45,-0 5.054,-0.092 7.812,-0.276c2.757,-0.184 5.453,-0.429 8.087,-0.735l0,9.19l-0.551,0.092c-1.777,0 -3.186,0.552 -4.228,1.655c-1.041,1.103 -1.562,2.634 -1.562,4.595l-0,26.779c-0,9.719 3.523,14.578 10.569,14.578c1.041,0 2.114,-0.092 3.216,-0.275c3.125,-0.55 5.408,-1.91 6.847,-4.079c1.44,-2.17 2.16,-5.486 2.16,-9.948l0,-25.309c0,-5.33 -2.022,-7.996 -6.066,-7.996l-0.643,0l0,-9.282c1.716,0.306 3.6,0.551 5.652,0.735c2.053,0.184 4.059,0.276 6.02,0.276c1.777,-0 3.676,-0.092 5.698,-0.276c2.022,-0.184 3.983,-0.429 5.882,-0.735l0,9.19l-0.662,0.092c-3.152,0.245 -5.107,1.869 -5.863,4.871l-0,28.813c-0,7.705 -2.191,13.714 -6.571,18.025c-4.381,4.312 -10.646,6.467 -18.795,6.467c-8.578,0 -15.072,-2.018 -19.484,-6.056c-4.411,-4.038 -6.617,-9.91 -6.617,-17.618l-0.368,-25.325l-0.092,-1.928l0,-1.009l-0.275,-1.376c-0.674,-2.997 -2.512,-4.619 -5.515,-4.864l-0.643,0Zm66.723,56.798l0,-9.283l1.011,0c0.919,-0.246 1.808,-0.707 2.665,-1.384c1.165,-0.861 2.359,-2.029 3.585,-3.505l1.103,-1.385l0.643,-0.922l1.47,-2.03l10.753,-15.315l-9.925,-13.839l-1.471,-2.123l-0.643,-0.83l-1.103,-1.292c-2.512,-2.891 -4.749,-4.521 -6.709,-4.89l-1.103,0l-0,-9.282l8.455,0.459c3.799,0 6.893,-0.03 9.283,-0.091c9.496,-0.245 14.704,-0.368 15.623,-0.368l0,9.282l-0.551,0c-1.47,0.182 -2.206,0.851 -2.206,2.006c0,0.79 0.336,1.854 1.008,3.191l0.641,1.095l0.642,1.003l1.282,1.915l2.933,4.286l2.959,-4.307l1.172,-1.762l0.721,-1.204l0.663,-1.089c0.564,-1.2 0.846,-2.131 0.846,-2.791c0,-1.261 -1.042,-2.042 -3.125,-2.343l-0.551,0l-0,-9.282c3.615,0.429 7.505,0.643 11.672,0.643c4.105,0 7.965,-0.214 11.58,-0.643l-0,9.19l-0.553,0.092l-0.461,0c-0.982,0.187 -1.995,0.669 -3.039,1.446c-1.044,0.777 -2.211,1.942 -3.501,3.497l-1.105,1.399l-0.737,0.903l-1.379,1.932l-9.077,12.881l11.397,16.234l1.47,2.029l0.643,0.922l1.103,1.384c1.164,1.414 2.267,2.521 3.309,3.32c1.041,0.8 1.96,1.322 2.757,1.568l0.919,0l0,9.283c-4.902,-0.429 -10.171,-0.644 -15.808,-0.644c-5.698,0 -10.998,0.215 -15.899,0.644l-0,-9.283l0.459,0c1.471,-0.183 2.206,-0.827 2.206,-1.93c0,-0.612 -0.398,-1.715 -1.195,-3.308l-0.643,-1.103l-0.184,-0.276l-1.93,-2.665l-4.595,-6.25l-4.412,6.25l-1.194,1.746l-1.471,2.39c-0.49,1.164 -0.735,2.083 -0.735,2.757c-0,1.409 1.072,2.206 3.217,2.389l0.551,0l0,9.283c-3.615,-0.429 -7.506,-0.644 -11.672,-0.644c-4.166,0 -8.088,0.215 -11.764,0.644Z"/></svg>