<?xml version="1.0" encoding="UTF-8" standalone="no"?><!DOCTYPE svg PUBLIC "-//W3C//DTD SVG 1.1//EN" "http://www.w3.org/Graphics/SVG/1.1/DTD/svg11.dtd"><svg width="100%" height="100%" viewBox="0 0 300 100" version="1.1" xmlns="http://www.w3.org/2000/svg" xmlns:xlink="http://www.w3.org/1999/xlink" xml:space="preserve" xmlns:serif="http://www.serif.com/" style="fill-rule:evenodd;clip-rule:evenodd;stroke-linejoin:round;stroke-miterlimit:2;"><path d="M92.714,65.841c0,-4.93 1.75,-9.132 5.251,-12.605c3.501,-3.473 7.728,-5.21 12.684,-5.21c4.955,0 9.175,1.745 12.659,5.234c1.694,1.697 2.997,3.649 3.908,5.858c0.911,2.209 1.367,4.482 1.367,6.819c-0,2.336 -0.44,4.585 -1.319,6.746c-0.879,2.161 -2.174,4.105 -3.884,5.834c-1.71,1.729 -3.652,3.041 -5.826,3.937c-2.174,0.897 -4.476,1.345 -6.905,1.345c-4.86,-0 -9.064,-1.761 -12.612,-5.282c-3.549,-3.521 -5.323,-7.747 -5.323,-12.676Zm12.036,5.621c0.927,1.538 1.894,2.803 2.901,3.796c1.007,0.993 2.015,1.713 3.022,2.162c1.007,0.448 1.99,0.673 2.949,0.673c1.726,-0 3.22,-0.585 4.483,-1.754c1.263,-1.169 1.894,-2.651 1.894,-4.444c0,-1.09 -0.096,-2.107 -0.287,-3.052c-0.192,-0.945 -0.56,-2.33 -1.103,-4.156c-0.64,-2.21 -1.695,-4.244 -3.165,-6.102c-1.087,-1.377 -2.222,-2.483 -3.405,-3.316c-0.575,-0.416 -1.207,-0.736 -1.894,-0.96c-0.687,-0.225 -1.303,-0.337 -1.846,-0.337c-1.119,0 -2.198,0.337 -3.237,1.009c-1.039,0.673 -2.022,1.586 -2.949,2.739c-0.256,0.32 -0.448,0.737 -0.575,1.249c-0.128,0.513 -0.192,1.057 -0.192,1.634c-0,1.762 0.479,3.94 1.438,6.535c0.704,1.889 1.359,3.331 1.966,4.324Zm25.032,-18.017l-0,-4.843c2.23,0.319 4.603,0.479 7.12,0.479c2.517,0 4.906,-0.16 7.168,-0.479c0.255,1.182 0.558,2.126 0.909,2.829c0.35,0.703 1.067,1.902 2.15,3.596l10.513,16.208l0,-13.618c0,-2.782 -1.087,-4.172 -3.26,-4.172l-0.336,-0l-0,-4.843c1.886,0.319 3.9,0.479 6.042,0.479c2.142,0 4.172,-0.16 6.09,-0.479l-0,4.795l-0.341,0.048c-1.557,0.128 -2.514,0.975 -2.87,2.541l-0.098,0.72l0,19.564c0,1.918 0.16,3.677 0.48,5.275l0.335,1.535c-1.694,-0.32 -3.484,-0.48 -5.37,-0.48c-1.855,0 -3.629,0.16 -5.323,0.48c-0.192,-1.023 -0.496,-1.918 -0.911,-2.686c-0.16,-0.319 -0.608,-1.039 -1.343,-2.158l-12.276,-18.461l0,15.153l0.098,0.719c0.388,1.598 1.409,2.462 3.063,2.589l0.34,0l-0,4.844c-0.672,-0.128 -1.591,-0.224 -2.758,-0.288c-1.166,-0.064 -2.165,-0.096 -2.997,-0.096l-3.5,0l-2.925,0.384l-0,-4.844l0.34,0c1.557,-0.127 2.53,-0.991 2.919,-2.589l0.097,-0.719l0,-18.942c-0.383,-1.566 -1.374,-2.413 -2.973,-2.541l-0.383,-0Zm37.163,29.635l0,-4.796l0.336,0c1.566,-0.127 2.541,-0.991 2.925,-2.589l0.096,-0.719l0.048,-0.528l-0,-2.35l0.048,-13.846l-0,-0.913l-0.048,-0.625l-0.096,-0.721c-0.384,-1.57 -1.343,-2.42 -2.877,-2.548l-0.336,-0l0,-4.843c2.653,0.319 5.435,0.479 8.344,0.479c2.941,0 5.706,-0.16 8.296,-0.479l-0,4.795l-0.336,0.048c-1.662,0.128 -2.653,0.975 -2.973,2.541l-0.144,0.72l0,17.877c0,0.962 0.12,1.691 0.36,2.188c0.239,0.496 0.679,0.905 1.318,1.225l0.959,0.288l2.542,0c1.215,0 2.094,-0.443 2.637,-1.33c0.192,-0.285 0.376,-0.839 0.552,-1.663c0.176,-0.823 0.407,-1.377 0.695,-1.662c0.288,-0.285 0.879,-0.428 1.774,-0.428l3.069,0c-0.287,2.068 -0.431,4.12 -0.431,6.156l-0,1.551c-0,0.398 0.064,1.122 0.192,2.172c-1.215,-0 -2.302,-0.032 -3.261,-0.096c-3.389,-0.224 -5.163,-0.336 -5.323,-0.336c-3.357,0 -6.585,0.008 -9.686,0.024c-3.101,0.016 -5.994,0.152 -8.68,0.408Zm28.148,-0l0,-4.844l0.336,0c1.599,-0.127 2.59,-0.975 2.973,-2.541l0.096,-0.767l0.048,-0.576l0,-2.301l0.048,-13.811l0,-1.534c0,-2.174 -1.023,-3.261 -3.069,-3.261l-0.336,-0l0,-4.843c0.096,-0 0.959,0.08 2.59,0.239c0.703,0.064 1.231,0.096 1.582,0.096l5.707,0c2.461,0 4.747,-0.112 6.857,-0.335l-0,4.795l-0.336,0.048c-2.078,-0 -3.117,1.358 -3.117,4.076l0,17.407c0,1.023 0.264,1.83 0.792,2.421c0.527,0.592 1.238,0.887 2.133,0.887l0.384,0l0,4.844c-2.653,-0.32 -5.435,-0.48 -8.344,-0.48c-2.909,0 -5.69,0.16 -8.344,0.48Zm17.503,-29.635l0,-4.843c2.231,0.319 4.604,0.479 7.12,0.479c2.518,0 4.907,-0.16 7.169,-0.479c0.255,1.182 0.558,2.126 0.908,2.829c0.351,0.703 1.067,1.902 2.15,3.596l10.514,16.208l-0,-13.618c-0,-2.782 -1.087,-4.172 -3.261,-4.172l-0.336,-0l0,-4.843c1.887,0.319 3.901,0.479 6.042,0.479c2.142,0 4.172,-0.16 6.09,-0.479l0,4.795l-0.34,0.048c-1.557,0.128 -2.514,0.975 -2.871,2.541l-0.097,0.72l-0,19.564c-0,1.918 0.16,3.677 0.479,5.275l0.336,1.535c-1.694,-0.32 -3.485,-0.48 -5.371,-0.48c-1.854,0 -3.628,0.16 -5.323,0.48c-0.191,-1.023 -0.495,-1.918 -0.911,-2.686c-0.16,-0.319 -0.607,-1.039 -1.342,-2.158l-12.276,-18.461l-0,15.153l0.097,0.719c0.389,1.598 1.41,2.462 3.063,2.589l0.34,0l0,4.844c-0.671,-0.128 -1.59,-0.224 -2.757,-0.288c-1.167,-0.064 -2.166,-0.096 -2.997,-0.096l-3.501,0l-2.925,0.384l0,-4.844l0.34,0c1.557,-0.127 2.53,-0.991 2.92,-2.589l0.097,-0.719l-0,-18.942c-0.384,-1.566 -1.375,-2.413 -2.973,-2.541l-0.384,-0Zm37.164,29.635l-0,-4.748l0.383,0c1.663,0 2.702,-0.867 3.117,-2.602l0.096,-0.722l0,-0.434l0.048,-1.108l0,-1.301l-0.048,-13.925l0,-1.534l-0.144,-0.72c-0.192,-0.831 -0.535,-1.462 -1.031,-1.894c-0.495,-0.431 -1.175,-0.647 -2.038,-0.647l-0.335,-0l-0,-4.843c1.694,-0 4.196,0.056 7.504,0.167c3.309,0.112 5.795,0.168 7.457,0.168l3.069,-0.144l2.637,0l6.33,-0.191c-0.064,0.447 -0.12,1.15 -0.168,2.11c-0.048,0.959 -0.072,1.95 -0.072,2.973c0,1.694 0.064,3.228 0.192,4.603l-2.206,-0.048l-1.438,0c-0.895,-0.032 -1.439,-0.598 -1.631,-1.695l-0.048,-0.389l-0.048,-0.387l-0.096,-0.485c-0.191,-1.13 -1.007,-1.695 -2.445,-1.695l-2.446,-0c-2.206,-0 -3.308,1.333 -3.308,3.999l-0.048,0.771l-0,2.554c-0,0.996 0.112,1.654 0.335,1.976c0.224,0.321 0.688,0.514 1.391,0.578l1.918,-0c0.512,-0 0.927,-0.245 1.247,-0.734l0.144,-0.196l0.096,-0.245l0.191,-0.392l0.096,-0.147c0.096,-0.195 0.32,-0.375 0.672,-0.538l0.287,-0.049l0.144,-0.049l3.213,0l-0.192,4.652l0.144,4.747l-2.158,0c-0.959,0 -1.63,-0.208 -2.014,-0.623l-0.096,-0.192l-0.192,-0.288l-0.143,-0.288l-0.144,-0.239l-0.384,-0.576c-0.415,-0.319 -0.927,-0.479 -1.534,-0.479l-1.631,-0c-0.895,0.195 -1.342,0.732 -1.342,1.611l-0.048,0.587l-0,3.566c-0,1.693 0.191,2.865 0.575,3.516c0.384,0.651 1.087,1.059 2.11,1.221l2.206,0c1.023,0 1.79,-0.177 2.302,-0.532c0.511,-0.355 0.879,-0.968 1.102,-1.839l0.144,-0.533c0.352,-1.548 1.183,-2.323 2.494,-2.323l2.925,0c-0.128,1.567 -0.2,2.67 -0.216,3.309c-0.016,0.64 -0.024,1.151 -0.024,1.535c0,0.831 0.016,1.686 0.048,2.565c0.032,0.879 0.096,1.734 0.192,2.566l-2.398,-0l-4.843,-0.336l-11.557,0l-5.802,0.336l-2.541,-0Zm29.922,-4.412c0,-1.503 0.512,-2.733 1.535,-3.692c1.023,-1.023 2.254,-1.535 3.692,-1.535c1.439,0 2.661,0.512 3.668,1.535c1.007,1.023 1.511,2.269 1.511,3.74c0,1.471 -0.504,2.701 -1.511,3.692c-1.007,0.991 -2.245,1.487 -3.716,1.487c-1.438,-0 -2.653,-0.512 -3.644,-1.535c-0.512,-0.479 -0.895,-1.031 -1.151,-1.654c-0.256,-0.623 -0.384,-1.303 -0.384,-2.038Zm-187.682,-54.601l0,-3.155c0.583,0.062 1.093,0.114 1.531,0.156c0.437,0.042 0.812,0.063 1.125,0.063c0.645,-0 1.572,0.01 2.78,0.031c1.208,0.021 2.062,0.031 2.562,0.031l2.187,-0.156l2.499,-0c0.25,-0 0.437,0.01 0.562,0.031c1.937,0.249 3.406,0.836 4.405,1.76c1,0.924 1.5,2.102 1.5,3.535c-0,1.163 -0.349,2.175 -1.047,3.037c-0.697,0.861 -1.702,1.49 -3.014,1.884l-0.563,0.125l0.625,0.124c1.458,0.333 2.609,1.008 3.452,2.026c0.844,1.018 1.265,2.212 1.265,3.584c0,0.394 -0.052,0.83 -0.156,1.308c-0.687,3.345 -3.551,5.017 -8.591,5.017l-1.375,-0.094l-2.28,-0.218c-0.459,-0.021 -0.886,-0.047 -1.281,-0.079c-0.396,-0.031 -0.865,-0.046 -1.406,-0.046c-0.792,-0 -1.51,0.026 -2.156,0.078c-0.645,0.052 -1.51,0.14 -2.593,0.265l0,-3.155l0.222,-0c1.035,-0.083 1.679,-0.635 1.933,-1.656l0.063,-0.5l0,-11.871l-0.093,-0.469c-0.209,-1.021 -0.844,-1.572 -1.906,-1.656l-0.25,0Zm10.185,16.121c0.083,0.021 0.218,0.031 0.406,0.031c0.729,-0 1.328,-0.308 1.796,-0.924c0.469,-0.616 0.703,-1.458 0.703,-2.526c0,-0.718 -0.161,-1.314 -0.484,-1.786c-0.323,-0.472 -0.729,-0.806 -1.219,-1.001c-0.489,-0.195 -0.921,-0.292 -1.296,-0.292c-0.458,-0 -0.823,0.112 -1.094,0.338c-0.27,0.226 -0.437,0.534 -0.499,0.924l-0,3.142c-0,1.17 0.562,1.868 1.687,2.094Zm-0.219,-9.998c1.583,0 2.468,-0.858 2.655,-2.574c0.021,-0.126 0.032,-0.315 0.032,-0.566c-0,-0.628 -0.13,-1.172 -0.391,-1.633c-0.26,-0.46 -0.619,-0.806 -1.078,-1.036l-0.5,-0.157c-0.249,-0.063 -0.468,-0.094 -0.656,-0.094c-0.916,-0 -1.374,0.617 -1.374,1.853l-0,2.794c0.104,0.44 0.177,0.691 0.219,0.754c0.208,0.44 0.572,0.659 1.093,0.659Zm14.652,12.934c-0.646,0 -1.499,0.042 -2.562,0.125c-0.354,0.021 -0.833,0.063 -1.437,0.125l0,-3.155c0.833,-0 1.573,-0.563 2.218,-1.688l0.25,-0.469l0.781,-1.843l1.031,-2.657c1.021,-2.688 1.854,-4.99 2.5,-6.907c0.583,-1.729 1.176,-3.646 1.78,-5.751c0.417,0.085 0.901,0.16 1.453,0.224c0.552,0.064 1.057,0.096 1.515,0.096c0.625,0 1.213,-0.021 1.765,-0.064c0.552,-0.042 1.089,-0.128 1.609,-0.256l0.938,3.094c0.895,2.959 1.614,5.24 2.155,6.845c0.667,2 1.437,4.073 2.312,6.219l0.406,1l0.25,0.469c0.646,1.125 1.437,1.688 2.374,1.688l0,3.155c-0.854,-0.104 -1.78,-0.187 -2.78,-0.25c-1,-0.062 -1.979,-0.093 -2.937,-0.093c-2.062,-0 -3.967,0.114 -5.717,0.343l0,-3.155l0.219,-0c1.041,-0 1.562,-0.552 1.562,-1.656c-0,-0.208 -0.011,-0.375 -0.031,-0.5c-0,-0.541 -0.063,-0.874 -0.188,-0.999c-0.062,-0.084 -0.104,-0.146 -0.125,-0.188c-0.104,-0.125 -0.187,-0.187 -0.25,-0.187l-5.373,-0c-0.167,-0 -0.323,0.02 -0.469,0.062c-0.041,0 -0.104,0.031 -0.187,0.094l-0.469,1.218l-0.094,0.469c0,1.041 0.479,1.604 1.437,1.687l0.188,-0l-0,3.155c-0.625,-0.062 -1.114,-0.104 -1.468,-0.125c-1.104,-0.083 -1.989,-0.125 -2.656,-0.125Zm4.311,-10.403c-0.104,0.396 0.229,0.594 1,0.594l1.906,-0c0.625,-0 0.885,-0.219 0.781,-0.656l-1.687,-5.905l-2,5.967Zm16.027,-8.654l0,-3.155l2.624,0.219l4.765,-0c0.406,-0 0.796,-0.011 1.171,-0.032l0.906,-0.062l0.906,-0.094l2.749,0c0.209,0.042 0.365,0.063 0.469,0.063c1.875,0.313 3.317,0.987 4.327,2.02c1.01,1.034 1.515,2.355 1.515,3.963c0,1.42 -0.312,2.636 -0.937,3.649c-0.625,1.012 -1.479,1.707 -2.562,2.083l-0.312,0.094l-0.281,-0l0.156,0.156l0.468,0.377c0.459,0.376 0.833,0.727 1.125,1.051c0.292,0.324 0.594,0.737 0.906,1.239l0.312,0.471l1.156,1.977l0.969,1.348c0.458,0.503 0.802,0.764 1.031,0.785l0.25,-0l-0,3.155c-1.018,-0.208 -2.099,-0.312 -3.241,-0.312c-1.143,-0 -2.234,0.104 -3.273,0.312l-0.779,-1.249c-0.416,-0.667 -0.748,-1.229 -0.997,-1.687c-0.312,-0.584 -0.645,-1.26 -0.998,-2.031l-1.465,-3.155l-0.156,-0.282c-0.228,-0.375 -0.426,-0.635 -0.592,-0.781c-0.166,-0.145 -0.322,-0.229 -0.467,-0.25c-0.395,-0.041 -0.675,0.026 -0.842,0.204c-0.166,0.177 -0.249,0.525 -0.249,1.046l-0,1.875c-0,1.083 0.154,1.864 0.462,2.343c0.308,0.479 0.822,0.749 1.541,0.812l0.246,-0l0,3.155c-0.812,-0.104 -1.697,-0.187 -2.655,-0.25c-0.958,-0.062 -1.895,-0.093 -2.812,-0.093c-0.833,-0 -1.718,0.031 -2.655,0.093c-0.938,0.063 -1.854,0.146 -2.75,0.25l0,-3.155l0.219,-0c1.062,-0.083 1.718,-0.635 1.968,-1.656l0.063,-0.5c-0,-0.958 0.01,-2.822 0.031,-5.592c0.021,-2.77 0.031,-4.353 0.031,-4.749l0,-1.968c-0.021,0 -0.031,-0.01 -0.031,-0.031c-0.25,-1 -0.937,-1.552 -2.062,-1.656l-0.25,0Zm10.185,6.342c0.895,0 1.598,-0.276 2.109,-0.828c0.51,-0.552 0.765,-1.38 0.765,-2.483c-0,-0.958 -0.25,-1.687 -0.75,-2.187c-0.5,-0.5 -1.166,-0.75 -1.999,-0.75c-1.104,-0 -1.656,0.677 -1.656,2.031l-0,2.749c-0,0.5 0.109,0.869 0.328,1.109c0.219,0.239 0.62,0.359 1.203,0.359Zm20.15,12.965l0,-3.155c0.833,-0 1.573,-0.562 2.218,-1.687l0.25,-0.469l0.094,-0.187l0.313,-0.812l0.374,-0.844l1.031,-2.655c1.021,-2.687 1.854,-4.989 2.5,-6.905c0.583,-1.728 1.176,-3.645 1.78,-5.748c1.104,0.229 2.167,0.343 3.187,0.343c0.479,0 0.995,-0.031 1.547,-0.093c0.551,-0.063 1.088,-0.146 1.608,-0.25l0.407,1.281l0.531,1.812c0.791,2.707 1.51,4.998 2.155,6.873c0.583,1.708 1.354,3.77 2.312,6.186l0.25,0.656l0.156,0.343l0.25,0.469c0.646,1.125 1.437,1.687 2.375,1.687l-0,3.155c-0.854,-0.104 -1.781,-0.187 -2.781,-0.25c-1,-0.062 -1.979,-0.093 -2.937,-0.093c-0.854,-0 -1.786,0.031 -2.796,0.093c-1.01,0.063 -1.983,0.146 -2.921,0.25l0,-3.155l0.219,-0c1.041,-0 1.562,-0.562 1.562,-1.686c0,-0.212 -0.01,-0.382 -0.031,-0.509c-0,-0.487 -0.063,-0.826 -0.188,-1.017l-0.093,-0.096c-0.105,-0.148 -0.177,-0.222 -0.219,-0.222l-5.436,-0c-0.271,-0 -0.49,0.052 -0.656,0.156l-0.125,0.094l-0.063,0.062l-0.187,0.656l-0.094,0.406l-0.093,0.469c-0,1.041 0.479,1.604 1.437,1.687l0.187,-0l0,3.155c-1.25,-0.208 -2.603,-0.312 -4.061,-0.312c-1.437,-0 -2.791,0.104 -4.062,0.312Zm8.311,-10.653c-0.063,0.208 -0.016,0.359 0.14,0.453c0.156,0.094 0.443,0.141 0.859,0.141l1.906,-0c0.646,-0 0.906,-0.219 0.781,-0.656l-0.094,-0.313l0,-0.187l-1.575,-5.405l-1.829,5.405l-0.188,0.562Zm-1.031,-16.718l3.311,-3.003l4.343,4.16l-2.5,2.315c-1.624,-1.314 -3.342,-2.471 -5.154,-3.472Zm24.43,26.59c0.084,-0.901 0.13,-1.529 0.141,-1.885c0.01,-0.356 0.015,-0.649 0.015,-0.88l0,-2.764l1.375,0.031c0.854,-0 1.411,0.094 1.671,0.284c0.261,0.189 0.391,0.588 0.391,1.198l-0,0.378c-0,0.484 0.094,0.831 0.281,1.041c0.188,0.21 0.5,0.357 0.937,0.441c0.084,0.021 0.219,0.032 0.406,0.032c0.417,-0 0.761,-0.151 1.031,-0.454c0.271,-0.303 0.407,-0.725 0.407,-1.268l-0,-11.55c-0,-1.085 -0.155,-1.862 -0.463,-2.332c-0.308,-0.469 -0.832,-0.735 -1.572,-0.798l-0.246,0l-0,-3.155c0.812,0.104 1.697,0.187 2.655,0.25c0.959,0.062 1.885,0.093 2.781,0.093c0.854,0 1.749,-0.031 2.687,-0.093c0.937,-0.063 1.853,-0.146 2.749,-0.25l-0,3.124l-0.219,0.031c-1.02,0.084 -1.656,0.636 -1.905,1.658l-0.063,0.47l-0.031,0.344l-0,11.359c-0,1.981 -0.526,3.468 -1.578,4.459c-1.052,0.99 -2.733,1.486 -5.045,1.486c-0.521,-0 -1.078,-0.031 -1.672,-0.094c-0.593,-0.062 -1.197,-0.156 -1.812,-0.281c-0.614,-0.125 -1.244,-0.292 -1.89,-0.5l-0.531,-0.187l-0.5,-0.188Zm15.871,0.781l-0,-3.093l0.25,0c1.083,0 1.76,-0.565 2.03,-1.695l0.063,-0.47l-0,-0.283l0.031,-0.722l0,-0.848l-0.031,-9.072l-0,-0.999l-0.094,-0.469c-0.125,-0.542 -0.349,-0.953 -0.672,-1.234c-0.322,-0.281 -0.765,-0.422 -1.327,-0.422l-0.219,0l-0,-3.155c1.104,-0 2.734,0.036 4.889,0.109c2.156,0.073 3.775,0.11 4.858,0.11l2,-0.094l1.718,-0l4.124,-0.125c-0.042,0.291 -0.078,0.75 -0.11,1.374c-0.031,0.625 -0.046,1.271 -0.046,1.937c-0,1.104 0.041,2.104 0.125,3l-1.438,-0.032l-0.937,0c-0.583,-0.021 -0.937,-0.389 -1.062,-1.104l-0.062,-0.506l-0.063,-0.315c-0.125,-0.737 -0.656,-1.105 -1.593,-1.105l-1.594,-0c-1.437,-0 -2.155,0.868 -2.155,2.606l-0.031,0.502l-0,1.664c-0,0.648 0.072,1.078 0.218,1.287c0.146,0.209 0.448,0.335 0.906,0.377l1.25,-0c0.333,-0 0.604,-0.16 0.812,-0.479l0.094,-0.127l0.062,-0.16l0.125,-0.255l0.063,-0.096c0.062,-0.127 0.208,-0.244 0.437,-0.35l0.188,-0.032l0.093,-0.032l2.094,-0l-0.125,3.03l0.093,3.093l-1.406,0c-0.624,0 -1.062,-0.135 -1.312,-0.406l-0.062,-0.125l-0.125,-0.187l-0.094,-0.188l-0.094,-0.156l-0.25,-0.375c-0.27,-0.208 -0.604,-0.312 -0.999,-0.312l-1.062,-0c-0.584,0.127 -0.875,0.477 -0.875,1.05l-0.031,0.382l-0,2.323c-0,1.103 0.125,1.866 0.374,2.291c0.25,0.424 0.709,0.689 1.375,0.795l1.437,0c0.667,0 1.167,-0.115 1.5,-0.346c0.333,-0.232 0.573,-0.631 0.718,-1.199l0.094,-0.347c0.229,-1.008 0.771,-1.513 1.625,-1.513l1.905,0c-0.083,1.021 -0.13,1.739 -0.14,2.156c-0.011,0.416 -0.016,0.75 -0.016,0.999c0,0.542 0.01,1.099 0.031,1.672c0.021,0.573 0.063,1.13 0.125,1.671l-1.562,0l-3.155,-0.218l-7.529,-0l-3.78,0.218l-1.656,0Zm19.026,-19.307l-0,-3.155c0.812,0.104 1.697,0.187 2.655,0.25c0.958,0.062 1.885,0.093 2.781,0.093c0.833,0 1.718,-0.031 2.655,-0.093c0.937,-0.063 1.854,-0.146 2.749,-0.25l0,3.124l-0.187,0.031c-0.604,0 -1.083,0.188 -1.437,0.563c-0.354,0.374 -0.531,0.895 -0.531,1.562l-0,9.103c-0,3.303 1.197,4.955 3.592,4.955c0.355,0 0.719,-0.031 1.094,-0.094c1.062,-0.186 1.838,-0.649 2.327,-1.386c0.49,-0.738 0.735,-1.865 0.735,-3.382l-0,-8.603c-0,-1.812 -0.688,-2.718 -2.062,-2.718l-0.219,0l-0,-3.155c0.583,0.104 1.224,0.187 1.921,0.25c0.698,0.062 1.38,0.093 2.047,0.093c0.604,0 1.249,-0.031 1.937,-0.093c0.687,-0.063 1.353,-0.146 1.999,-0.25l-0,3.124l-0.225,0.031c-1.072,0.084 -1.736,0.635 -1.993,1.656l-0,9.794c-0,2.619 -0.745,4.662 -2.234,6.128c-1.489,1.465 -3.619,2.198 -6.389,2.198c-2.916,-0 -5.123,-0.686 -6.623,-2.059c-1.499,-1.372 -2.249,-3.369 -2.249,-5.989l-0.125,-8.609l-0.031,-0.655l-0,-0.343l-0.094,-0.467c-0.229,-1.019 -0.854,-1.57 -1.875,-1.654l-0.218,0Zm22.681,19.307l-0,-3.155l0.343,-0c0.313,-0.084 0.615,-0.241 0.906,-0.471c0.396,-0.292 0.802,-0.689 1.219,-1.191l0.375,-0.471l0.218,-0.313l0.5,-0.69l3.656,-5.206l-3.375,-4.705l-0.499,-0.721l-0.219,-0.282l-0.375,-0.44c-0.854,-0.982 -1.614,-1.537 -2.281,-1.662l-0.374,0l-0,-3.155l2.874,0.156c1.291,0 2.343,-0.01 3.155,-0.031c3.228,-0.084 4.999,-0.125 5.311,-0.125l0,3.155l-0.187,0c-0.5,0.062 -0.75,0.289 -0.75,0.682c-0,0.269 0.114,0.63 0.343,1.085l0.217,0.372l0.218,0.341l0.436,0.651l0.997,1.457l1.006,-1.464l0.399,-0.599l0.245,-0.41l0.225,-0.37c0.192,-0.408 0.288,-0.724 0.288,-0.949c-0,-0.428 -0.354,-0.694 -1.063,-0.796l-0.187,0l-0,-3.155c1.229,0.146 2.551,0.219 3.968,0.219c1.395,-0 2.707,-0.073 3.936,-0.219l-0,3.124l-0.188,0.031l-0.157,0c-0.334,0.064 -0.678,0.227 -1.033,0.492c-0.355,0.264 -0.751,0.66 -1.19,1.188l-0.376,0.476l-0.25,0.307l-0.469,0.656l-3.085,4.379l3.874,5.519l0.5,0.689l0.218,0.314l0.375,0.47c0.396,0.481 0.771,0.857 1.125,1.129c0.354,0.272 0.666,0.449 0.937,0.533l0.313,-0l-0,3.155c-1.667,-0.146 -3.458,-0.218 -5.374,-0.218c-1.937,-0 -3.738,0.072 -5.405,0.218l0,-3.155l0.157,-0c0.499,-0.063 0.749,-0.281 0.749,-0.656c0,-0.208 -0.135,-0.583 -0.406,-1.125l-0.218,-0.375l-0.063,-0.093l-0.656,-0.906l-1.562,-2.125l-1.5,2.125l-0.406,0.593l-0.5,0.812c-0.166,0.396 -0.25,0.709 -0.25,0.938c0,0.479 0.365,0.749 1.094,0.812l0.187,-0l0,3.155c-1.229,-0.146 -2.551,-0.218 -3.967,-0.218c-1.417,-0 -2.75,0.072 -3.999,0.218Z" fill="currentColor"/><path d="M45.822,16.718c1.688,-0.822 3.661,-0.822 5.35,0c9.154,4.49 18.165,9.692 26.63,15.375c1.557,1.051 2.543,2.76 2.675,4.634c0.689,10.172 0.689,20.576 0,30.749c-0.132,1.874 -1.118,3.582 -2.675,4.634c-8.465,5.682 -17.476,10.885 -26.63,15.374c-1.689,0.823 -3.662,0.823 -5.35,0c-9.154,-4.489 -18.165,-9.692 -26.63,-15.374c-1.557,-1.052 -2.543,-2.76 -2.676,-4.634c-0.688,-10.173 -0.688,-20.577 0,-30.749c0.133,-1.874 1.119,-3.583 2.676,-4.634c8.465,-5.683 17.476,-10.885 26.63,-15.375Zm20.608,59.808c3.419,-2.041 6.778,-4.168 10.056,-6.368c0.955,-0.646 1.561,-1.695 1.643,-2.846c0.681,-10.064 0.681,-20.357 -0,-30.422c-0.082,-1.15 -0.688,-2.199 -1.643,-2.845c-8.376,-5.622 -17.29,-10.769 -26.346,-15.211c-1.037,-0.505 -2.249,-0.505 -3.286,-0c-9.056,4.442 -17.971,9.589 -26.346,15.211c-0.956,0.646 -1.561,1.695 -1.643,2.845c-0.681,10.065 -0.681,20.358 -0,30.422c0.082,1.151 0.687,2.2 1.643,2.846c3.263,2.19 6.608,4.309 10.012,6.341l-0.068,-2.758c-1.618,-0.515 -3.044,-1.222 -4.315,-2.084c0.175,-1.347 0.403,-2.694 0.677,-4.042c0.807,-4.088 1.989,-8.493 2.868,-10.748c0.714,-1.834 1.847,-3.147 3.56,-3.44c0.932,-0.159 2.185,-0.472 4.385,-0.961c0.13,0.231 0.266,0.455 0.409,0.673c0.983,-0.163 2.106,-0.442 3.381,-0.917c0.983,-0.566 1.729,-1.367 2.2,-2.445l-0,-1.273c-0.826,-0.684 -1.562,-1.473 -2.189,-2.345c-3.221,-0.611 -6.123,-4.001 -6.123,-7.75c-0,-3.056 0.533,-5.623 1.608,-7.979c0.719,-1.574 2.67,-5.45 5.935,-7.402c1.19,-0.712 2.582,-1.121 4.069,-1.121c1.89,-0 3.627,0.661 4.992,1.765c0.204,0.062 0.406,0.13 0.605,0.202c0.55,-0.166 1.134,-0.256 1.738,-0.256c3.305,0 5.011,2.445 5.989,5.99c0.607,2.2 1.033,7.701 1.033,9.412c0,3.912 -1.644,5.99 -1.644,5.99c0,-0 -3.66,0.969 -5.623,1.1c-0.196,0.013 -0.403,0.027 -0.62,0.041c-0.192,0.243 -0.394,0.478 -0.603,0.706l-0,1.942c0.446,1.713 1.445,2.875 2.934,3.545c0.91,0.328 1.819,0.611 2.728,0.848c0.157,-0.234 0.307,-0.476 0.451,-0.726c1.98,0.515 3.667,1.1 5.5,1.589c1.427,0.53 2.364,1.548 2.934,2.934c1.803,4.513 3.257,9.374 4.278,14.668c-1.752,1.153 -3.504,2.021 -5.256,2.616l0.077,2.253Zm-14.228,-5.7l-1.062,-9.412c-0.189,-1.676 -1.704,-2.883 -3.38,-2.694l-6.073,0.685c-1.676,0.19 -2.883,1.704 -2.694,3.38l0.959,8.495l0.001,0.002l0.005,0.051l0.142,1.256c2.892,-0.367 5.527,-0.623 5.632,0.355c0.195,2.301 -1.543,5.274 -3.622,6.197c0.542,0.307 1.182,0.452 1.847,0.377l6.074,-0.686c0.192,-0.022 0.379,-0.061 0.558,-0.116c-2.101,-0.808 -4.007,-3.561 -4.005,-5.826c0.023,-0.987 2.685,-0.949 5.607,-0.824l0.011,-1.24Zm-24.218,-27.166l0.606,-0.119c1.712,-0.335 2.572,-0.206 2.808,0.424c0.034,0.091 0.057,0.242 0.052,0.335c-0.017,0.272 -0.156,0.434 -0.667,0.78c-0.557,0.376 -0.632,0.464 -0.539,0.626c0.079,0.135 0.482,0.416 1.19,0.83c1.105,0.645 1.691,1.103 1.872,1.462c0.15,0.297 0.154,0.294 -1.061,1l-1.03,0.599l-0.185,-0.037c-0.102,-0.02 -0.447,-0.179 -0.767,-0.354c-0.679,-0.37 -0.914,-0.465 -1.009,-0.41c-0.095,0.055 -0.128,0.306 -0.144,1.08c-0.007,0.364 -0.039,0.743 -0.072,0.841l-0.06,0.179l-1.031,0.598c-0.761,0.442 -1.062,0.6 -1.151,0.605c-0.11,0.006 -0.133,-0.015 -0.26,-0.234c-0.229,-0.395 -0.317,-1.032 -0.33,-2.385c-0.012,-1.185 -0.076,-1.482 -0.315,-1.459c-0.066,0.007 -0.305,0.107 -0.53,0.222c-0.684,0.349 -0.931,0.377 -1.242,0.142c-0.293,-0.223 -0.371,-0.533 -0.249,-0.995c0.112,-0.424 0.502,-1.025 1.15,-1.775l0.422,-0.49c-0.161,-0.135 -0.3,-0.299 -0.407,-0.485c-0.468,-0.81 -0.236,-1.821 0.518,-2.257c0.754,-0.435 1.746,-0.13 2.214,0.68c0.108,0.186 0.181,0.389 0.217,0.597Zm43.625,2.14l4.166,2.405l0,4.81l-4.166,2.406l-4.166,-2.406l0,-4.81l4.166,-2.405Zm-6.001,-6.434l1.76,-2.839c-0.579,-0.452 -0.849,-1.232 -0.617,-1.974c0.298,-0.958 1.318,-1.494 2.276,-1.196c0.958,0.299 1.494,1.319 1.196,2.277c-0.231,0.743 -0.896,1.231 -1.629,1.275l-0.163,3.336l0.016,0.005c0.41,0.128 0.64,0.565 0.512,0.976c-0.128,0.41 -0.565,0.64 -0.976,0.512l-2.854,-0.889c-0.411,-0.127 -0.64,-0.565 -0.512,-0.975c0.127,-0.411 0.565,-0.641 0.975,-0.513l0.016,0.005Z" fill="currentColor" /></svg>