<?xml version="1.0" encoding="utf-8"?>
<!-- Generator: Adobe Illustrator 23.0.3, SVG Export Plug-In . SVG Version: 6.00 Build 0)  -->
<svg version="1.1" xmlns="http://www.w3.org/2000/svg" xmlns:xlink="http://www.w3.org/1999/xlink" x="0px" y="0px"
	 viewBox="0 0 566.9 566.9" style="enable-background:new 0 0 566.9 566.9;" xml:space="preserve">
<style type="text/css">
	.st0{fill:none;stroke:#FFFFFF;stroke-width:18;}
	.st1{fill:#7F2629;}
	.st2{fill:#F18A00;stroke:#EF910E;stroke-miterlimit:10;}
	.st3{fill:#FF6C0E;}
	.st4{filter:url(#Adobe_OpacityMaskFilter);}
	.st5{fill:#FFFFFF;}
	.st6{mask:url(#SVGID_1_);}
	.st7{clip-path:url(#SVGID_3_);fill:#FFFFFF;}
	.st8{filter:url(#Adobe_OpacityMaskFilter_1_);}
	.st9{clip-path:url(#SVGID_3_);}
	.st10{opacity:0.75;clip-path:url(#SVGID_3_);fill:#FFFFFF;}
	.st11{filter:url(#Adobe_OpacityMaskFilter_2_);}
	.st12{opacity:0.9;clip-path:url(#SVGID_3_);mask:url(#SVGID_6_);fill:#B3DDDD;}
</style>
<g id="Calque_14">
	<path class="st0" d="M491.2,262.3c13.5-19,24.7-40.5,26.7-59.7s-4.3-35.5-4.3-35.5s-6.2-18.3-20.7-24.2
		c-12.8-5.3-21.5-4.5-21.5-4.5c-8.9,0-32.2,3.3-38.4,4.5c-2.3-10.4-4.1-16.2-4.1-16.2s-4.3-15.5-14.2-37.5
		c-9.8-22-23.3-38.5-23.3-38.5s-5-6.8-11.2-6.8c-6.2,0-10.8,7.5-10.8,7.5s-8.8,13.5-13.7,29.7c0,0-6,16.8-11,29.8
		c-4.7,12.3-14.4,29-15.4,30.7c-7.9,4.3-17.2,10.5-28.1,19.3c-1.2-1.2-2.4-2.3-3.7-3.5C243.1,100.9,157.3,60,119.8,52.5
		c-6.5-0.5-10-0.8-13.8,2.1c-16,13.7,42,83.9,42,124.8c-0.5,15.8-7.3,21.3-7.3,21.3s-10.9,8-16.7,14.3c-10.5,10.4-14,24.4-14,30
		c-1.2,37.4,74.6,62.4,74.7,65c-7.4-0.1-14,2.3-14,2.3l-11.7-5.7c0,0-7.7-17.2-39-18.2c-25.5-0.4-48,11.9-48,11.9
		s-15.4,7.7-12.9,23.3c2.4,15.7,7.5,93,11.2,100c8.2,15.7,23.4,13.7,23.4,13.7s36.8-4.8,41.3-7c0,0,5.6-1.7,8.9-4.6
		c5.1,4.8,15.4,6.9,15.4,6.9c16.2,2.4,32-4.7,32-4.7l16.3-7l3.7,1c-7.5,15.8,0.4,17.9-12.8,42c-17.8,29.5-56.2,32.3-62.3,37
		c-10.5,7.2-0.2,14.5-0.2,14.5s9.1,5.4,15.9,6.9s11.1,2.4,18.9-3.5c7.6-6.3,14.1-13.1,20-20.3c-0.2,1.3-0.5,3.6,0.2,4.7
		c2.2,4.5,8.3,3.7,8.3,3.7s15.3,0.2,26-10.3c8.5-9,10.2-22,10.2-22s7.5-29.2,4.5-43c0-0.1,0-0.1,0-0.2c4.7-5.7,8.4-10.1,8.4-10.1
		l6.3-0.1c0,0-19.2,55.2,12,53.8c20,0.4,18.3-18.5,24.7-31.9c7.2-15,9.9-17.6,9.9-17.6s12.9,7.6,31.8,7.6s27-6.4,27-6.4
		s0.8,22.3,22,24l20.7-0.3c20-0.9,24.9-23.3,24.9-23.3s14.6,3.1,31.4,0.3c12.5,4.2,31.3,3.7,31.3,3.7s12-0.6,17.7-8.3
		c5.6-7.7,4.6-17.3,4.6-17.3s1-7.6-14-33c4-7,15.1-31.8,15.1-31.8s5.4-7.6-0.5-21.2c-5.8-13.6-20.7-12-20.7-12s-33.1,5.1-32.2,7.7
		c-1.4-2.1-6.1-0.8-18.1,0.5C446.7,311.4,478.6,280,491.2,262.3z M459.2,174.3c10.8,21.2,11.5,42.5,11.5,42.5s-0.5,23.5-10,38
		c-6.5,10.3-30.2,38.3-30.2,38.3s4.3-16,7.2-39s2.8-48.2,2.8-48.2s-0.2-21-3.8-43.5c-1.1-7-2.3-13.1-3.4-18.1
		C437.7,147.4,450.3,157.1,459.2,174.3z"/>
</g>
<g id="Calque_5">
	<path class="st1" d="M236.5,422.3c0.7,0.5,3,3.3,3.5,9.3c3,13.8-4.5,43-4.5,43s-1.7,13-10.2,22c-10.7,10.5-26,10.3-26,10.3
		s-6.2,0.8-8.3-3.7c-1-1.5,0-5.5,0-5.5l2.3-16.5L236.5,422.3z"/>
	<path class="st1" d="M440.8,321.5l1-5.3c0,0,35.8-34.8,49.3-53.8s24.7-40.5,26.7-59.7s-4.3-35.5-4.3-35.5s-6.2-18.3-20.7-24.2
		c-12.8-5.3-21.5-4.5-21.5-4.5c-9.8,0-37,4-39.7,4.8c0,0,16.7,9.8,27.5,31c10.8,21.2,11.5,42.5,11.5,42.5s-0.5,23.5-10,38
		c-6.5,10.3-30.2,38.3-30.2,38.3s4.3-16,7.2-39s2.8-48.2,2.8-48.2s-0.2-21-3.8-43.5s-7.8-35.7-7.8-35.7s-4.3-15.5-14.2-37.5
		c-9.8-22-23.3-38.5-23.3-38.5s-5-6.8-11.2-6.8c-6.2,0-10.8,7.5-10.8,7.5s-8.8,13.5-13.7,29.7c0,0-6,16.8-11,29.8
		s-15.5,30.8-15.5,30.8l-27.8,19.8l67.2,159.8H440.8z"/>
</g>
<g id="Calque_2">
	<path class="st2" d="M382,316.8c-1-37.8-40.7-119.5-84.5-159.3C243.1,100.9,157.3,60,119.8,52.5c-6.5-0.5-10-0.8-13.8,2.1
		c-16,13.7,42,83.9,42,124.8c-0.5,15.8-7.3,21.3-7.3,21.3s-10.9,8-16.7,14.3c-10.5,10.4-14,24.4-14,30c-1.2,37.4,74.6,62.4,74.7,65
		c-7.4-0.1-14,2.3-14,2.3l-11.7-5.7c0,0-7.7-17.2-39-18.2c-25.5-0.4-48,11.9-48,11.9s-15.4,7.7-12.9,23.3c2.4,15.7,7.5,93,11.2,100
		c8.2,15.7,23.4,13.7,23.4,13.7s36.8-4.8,41.3-7c0,0,5.6-1.7,8.9-4.6c5.1,4.8,15.4,6.9,15.4,6.9c16.2,2.4,32-4.7,32-4.7l16.3-7
		l3.7,1c-7.5,15.8,0.4,17.9-12.8,42c-17.8,29.5-56.2,32.3-62.3,37c-10.5,7.2-0.2,14.5-0.2,14.5s9.1,5.4,15.9,6.9s11.1,2.4,18.9-3.5
		c24.6-20.2,37.5-46.9,54.8-69.5c8.3-11.1,22.7-28.1,22.7-28.1l6.3-0.1c0,0-19.2,55.2,12,53.8c20,0.4,18.3-18.5,24.7-31.9
		c7.2-15,9.9-17.6,9.9-17.6s12.9,7.6,31.8,7.6s27-6.4,27-6.4s0.8,22.3,22,24l20.7-0.3c20-0.9,24.9-23.3,24.9-23.3s14.6,3.1,31.4,0.3
		c12.5,4.2,31.3,3.7,31.3,3.7s12-0.6,17.7-8.3c5.6-7.7,4.6-17.3,4.6-17.3s1-7.6-14-33c4-7,15.1-31.8,15.1-31.8s5.4-7.6-0.5-21.2
		c-5.8-13.6-20.7-12-20.7-12s-33.1,5.1-32.2,7.7c-1.5-2.3-7-0.5-21.7,0.9c-7.9-0.9-24.6,0-24.6,0c27.9-89,13.3-124.6,12-127.8
		c-21.5-55.2-64.2-56-64.2-56s-20-4.8-62.3,30c15-1.7,43.3,12,52.7,18c9.3,6,27.3,21.3,34,33.3c11.7,21.5,10.8,36.5,7,63
		c-5.8,32-1,41-1,41S385.9,316,382,316.8z"/>
</g>
<g id="Calque_3">
	<path class="st3" d="M158.2,328.3c0,0-1.5-18.5-17.2-26.3c-6.8-3.2-21.5-4-21.5-4s-22.7,0.3-36.5,7.5c-8.8,4-12.8,9-12.8,9
		s-2.1,5-1.7,9.7s4.3,44.5,4.3,44.5l5,48.5c0,0,0.3,4.2,4.3,7.8c4,3.7,9.5,3.5,9.5,3.5l21.7-2.7c0,0,10.8-0.8,21-5
		C144.5,416.7,152,409,152,409s6,6.2,22.8,6.3c16.8,0.2,28.7-10,28.7-10s2.8,5.3,6.3,7.2c3.5,1.8,9.5,1.8,9.5,1.8l19-1.3
		c0,0,4.3-0.8,5.7-1.5c1.5,1,3.7,0.8,3.7,0.8l23.2-0.3c0,0,2.3-0.1,3.7-1.2c0.9,1,5,1.3,5,1.3l19.5,1.7c0,0,9,6.5,19.8,8.8
		c10.8,2.3,18.5,1.5,18.5,1.5s12.8-1.3,20.7-5.8c7.9-4.6,15.7-13,15.7-13s0.5,2.3,2.2,3.8c-6.8,12.8-6.5,18.5-6.5,18.5
		s1.1,14.4,14.2,14c7.6-0.2,10.8-0.2,19.5-0.7c9.1-0.6,12.5-9.2,12.5-9.2s3.9-8.8,7.2-16.5c4.3,4.3,9.5,3.3,9.5,3.3l20,0.8
		c0,0,5-0.1,6.8-1.5c2.4,1.4,7.7,2.2,7.7,2.2l15.6,1.1c0,0,13.9,2.9,18.7-4.6s1.8-14.5,1.8-14.5L488.7,372l17.7-36.3
		c0,0,2.8-8.8-2.3-14.5s-11-5-11-5l-27.7,6.2c0,0-2.2,0.5-3,1.8c-2.1-0.7-4.7-0.7-4.7-0.7s-12.6,1.5-22,2
		c-9.4,0.5-20.8,1.2-20.8,1.2s-9,1-10.8,7.7c-4.3-9.1-14.7-8.3-14.7-8.3l-13.5-0.5c0,0-4.2-5.3-12.7-8.2c-8.4-2.8-16.7-2.3-16.7-2.3
		v-12.5c0,0,0.4-12.5-13.8-12.7c-11.7,2.3-16.7,3.1-27.5,5.5c-10.8,2.4-10.7,13.3-10.7,13.3l0.2,10.8c0,0-2.9-1.8-11.2-1.3
		c-8.3,0.5-12.6,4-12.6,4s-5.4-4.6-14-4.5c-8.6,0.1-13.3,2.3-13.3,2.3s-3.7-1.2-6.2-1.3c-2.5-0.2-26.8,5.7-26.8,5.7l-1.8,1.5
		c0,0-7.4-7-24.2-7C167.8,318.9,158.2,328.3,158.2,328.3z"/>
</g>
<g id="Calque_7">
	<path d="M209,331.1c0,0-6-7.9-23.4-8.4s-31,13.5-31,13.5s1.6-6-4.2-19.1s-21.8-14.6-21.8-14.6s-12.4-1.8-26.9,1.4
		S78,312.5,78,312.5s-3.5,2-4.9,5.1S72,323,72,323l4,39.4l5.2,52.4c0,0,0.5,4.5,3.8,7.2s6.9,2.6,6.9,2.6l20.9-2.5
		c0,0,11.1-1.2,21-5.4s17.9-13.2,17.9-13.2s7,7.6,22.4,8c20.4,0.4,32.5-14,32.5-14s-0.2,6.9,3.4,9.9s8.2,2.9,8.2,2.9l19.5-1.4
		c0,0,4.1,0,5.6-2c2.4,1.6,5.6,1.4,5.6,1.4l20.9-0.1c0,0,4-0.4,5.2-1.8c1.9,1.9,5.8,2,5.8,2l20.2,1.4c0,0,7.6,9.4,32.1,10.8
		s42.4-23.6,42.4-23.6s1.2,9.5,4.6,11.4l-5.9,14c0,0-2.5,6,0.4,10.8s9.9,4.9,9.9,4.9l18-0.8c0,0,6.3,0.1,9-6.1
		c2.7-6.2,10.9-25,10.9-25s0.5,8.7,9.2,8.9c8.8,0.2,21.4,0.4,21.4,0.4s4.9,0,6.2-2.2c3.4,2.9,8.1,3.1,8.1,3.1l22.4,1.8
		c0,0,3.8,0.8,8-3.9s0.8-12.1,0.8-12.1l-14.1-30.2l17.9-36.5c0,0,2.5-6-0.9-10.8s-8.2-4.4-8.2-4.4l-26.6,5.9c0,0-3.2,1.2-3.5,3
		c-1.1-1.8-5.5-1.8-5.5-1.8l-21.8,2.5l-19.8,0.6c0,0-6.9,0.6-8.9,6c-1.9,5.4-3.9,10.8-3.9,10.8s-0.9-3.5-2.8-10.4s-9.5-6.5-9.5-6.5
		l-16.8-0.8c0,0-7.6-10.2-23.9-10.6c-4.1,0-7.6,1.1-7.6,1.1v-16.4c0,0,0.2-9.9-10.4-10c-10.9,2.4-26.2,5.9-26.2,5.9s-7.6,1.5-7.6,10
		s0,15.8,0,15.8s-3.9-3-13-3.1s-14.4,4.9-14.4,4.9s-6.2-5.2-15.8-5.5c-6-0.4-12.5,3.1-12.5,3.1s-3.2-1.9-5.8-2.1s-22.6,4.8-25,5.5
		S209,331.1,209,331.1z"/>
</g>
<g id="Calque_8">
	<g>
		<g>
			<defs>
				<filter id="Adobe_OpacityMaskFilter" filterUnits="userSpaceOnUse" x="63" y="288.6" width="445" height="139.2">
					<feColorMatrix  type="matrix" values="1 0 0 0 0  0 1 0 0 0  0 0 1 0 0  0 0 0 1 0"/>
				</filter>
			</defs>
			<mask maskUnits="userSpaceOnUse" x="63" y="288.6" width="445" height="139.2" id="SVGID_1_">
				<g class="st4">
					<path class="st5" d="M189,360.7c0,0-0.2,19.7-11.5,20.4c-8.8,0.3-8.7-13.7-8.7-13.7s0.2-20.9,12-21
						C189.6,346.2,189,360.7,189,360.7 M119.7,380.6c0,0-3.6,2.6-7.8,3.4l-1.7-16.6c3.7-2.8,7.2-3.1,7.2-3.1s5.3-1.1,7.2,4.8
						C126.2,376.4,119.7,380.6,119.7,380.6 M106.9,333.6c0,0,9.2-5.9,11.6,2.4c2.4,8.3-10.1,12.3-10.1,12.3L106.9,333.6z M183.8,331
						c-20.6,0.1-30.9,17.5-34.4,28.1c-4.1-10.5-13.9-10.5-13.9-10.5s9.5-7.6,6.2-22.8c-4-18.2-21.9-16.4-35.5-14.8
						s-25.8,8.8-25.8,8.8l9,92.4c0,0,21.5-1.5,32.1-4.2c0,0,20.9-5.9,27.6-24.9c0,0,3.8,16.5,23.4,16.4c31.8-1,35.6-33.4,35.6-33.4
						S214.1,332,183.8,331"/>
					<path class="st5" d="M214.6,335.2l0,63.2l21.1-1.5c0,0,0.3-28.9,0.4-33.8c0.4-7.9,4.9-11.4,7.2-11.6c4.1,0,4.4,5.6,4.4,5.6
						l-0.6,39.2l10.6-0.5l10.1,0.1l0.6-33.6c0,0,0.8-10.8,6.4-10.8c5.1,0,5,8.5,5,8.5l-0.6,36l20,1.6v-49.7c0,0,0.8-17.8-14.5-17.8
						c-12-0.1-17,11.5-17,11.5s-0.6-11.6-13.9-12.1c-11.9-0.4-17.9,12.4-17.9,12.4l-0.1-11.6L214.6,335.2z"/>
					<path class="st5" d="M337.6,387.9c-3.5,1.5-6.7,0.4-6.7,0.4v-32.7c0,0,5.9-8.1,13.1-4.8c7.2,3.3,5.8,14.3,5.8,14.3
						S350.3,382.1,337.6,387.9 M491.4,328.4c0,0-16.3,4.1-22.5,4.9l-6.9,13.6l-6.1-11.5c0,0-11.6,1.8-22,2.5
						c-10.4,0.7-19.4,0.8-19.4,0.8l-14.6,39.4l-10.8-39.8l-21.7-0.9c0,0-5.7-10-19.9-10.2c-9-0.1-16.8,6.5-16.8,6.5v-31.9l-24.2,5.3
						l0.1,94.5c0,0,11.6,7.2,25.1,7c13.5-0.2,22.2-7.9,22.2-7.9s21.2-12.9,19.6-43.5l11.7,41.6l6.8,0.1l-10.8,27l19-0.6
						c0,0,17.4-38.6,34.1-82.7l11.9,24.6l-15.9,35.7l20.6,0.5l6.2-14.6l7.6,15.2c7.4,0.1,23.2,1.9,23.2,1.9l-16.7-36.6L491.4,328.4z
						"/>
				</g>
			</mask>
			<g class="st6">
				<g>
					<defs>
						<rect id="SVGID_2_" x="63" y="288.6" width="445" height="138"/>
					</defs>
					<clipPath id="SVGID_3_">
						<use xlink:href="#SVGID_2_"  style="overflow:visible;"/>
					</clipPath>
					<path class="st7" d="M189,360.7c0,0-0.2,19.7-11.5,20.4c-8.8,0.3-8.7-13.7-8.7-13.7s0.2-20.9,12-21
						C189.6,346.2,189,360.7,189,360.7 M119.7,380.6c0,0-3.6,2.6-7.8,3.4l-1.7-16.6c3.7-2.8,7.2-3.1,7.2-3.1s5.3-1.1,7.2,4.8
						C126.2,376.4,119.7,380.6,119.7,380.6 M106.9,333.6c0,0,9.2-5.9,11.6,2.4c2.4,8.3-10.1,12.3-10.1,12.3L106.9,333.6z M183.8,331
						c-20.6,0.1-30.9,17.5-34.4,28.1c-4.1-10.5-13.9-10.5-13.9-10.5s9.5-7.6,6.2-22.8c-4-18.2-21.9-16.4-35.5-14.8
						s-25.8,8.8-25.8,8.8l9,92.4c0,0,21.5-1.5,32.1-4.2c0,0,20.9-5.9,27.6-24.9c0,0,3.8,16.5,23.4,16.4c31.8-1,35.6-33.4,35.6-33.4
						S214.1,332,183.8,331"/>
					<path class="st7" d="M214.6,335.2l0,63.2l21.1-1.5c0,0,0.3-28.9,0.4-33.8c0.4-7.9,4.9-11.4,7.2-11.6c4.1,0,4.4,5.6,4.4,5.6
						l-0.6,39.2l10.6-0.5l10.1,0.1l0.6-33.6c0,0,0.8-10.8,6.4-10.8c5.1,0,5,8.5,5,8.5l-0.6,36l20,1.6v-49.7c0,0,0.8-17.8-14.5-17.8
						c-12-0.1-17,11.5-17,11.5s-0.6-11.6-13.9-12.1c-11.9-0.4-17.9,12.4-17.9,12.4l-0.1-11.6L214.6,335.2z"/>
					<path class="st7" d="M337.6,387.9c-3.5,1.5-6.7,0.4-6.7,0.4v-32.7c0,0,5.9-8.1,13.1-4.8c7.2,3.3,5.8,14.3,5.8,14.3
						S350.3,382.1,337.6,387.9 M491.4,328.4c0,0-16.3,4.1-22.5,4.9l-6.9,13.6l-6.1-11.5c0,0-11.6,1.8-22,2.5
						c-10.4,0.7-19.4,0.8-19.4,0.8l-14.6,39.4l-10.8-39.8l-21.7-0.9c0,0-5.7-10-19.9-10.2c-9-0.1-16.8,6.5-16.8,6.5v-31.9l-24.2,5.3
						l0.1,94.5c0,0,11.6,7.2,25.1,7c13.5-0.2,22.2-7.9,22.2-7.9s21.2-12.9,19.6-43.5l11.7,41.6l6.8,0.1l-10.8,27l19-0.6
						c0,0,17.4-38.6,34.1-82.7l11.9,24.6l-15.9,35.7l20.6,0.5l6.2-14.6l7.6,15.2c7.4,0.1,23.2,1.9,23.2,1.9l-16.7-36.6L491.4,328.4z
						"/>
					<defs>
						<filter id="Adobe_OpacityMaskFilter_1_" filterUnits="userSpaceOnUse" x="71.6" y="293" width="426.2" height="134.9">
							<feColorMatrix  type="matrix" values="1 0 0 0 0  0 1 0 0 0  0 0 1 0 0  0 0 0 1 0"/>
						</filter>
					</defs>
					<mask maskUnits="userSpaceOnUse" x="71.6" y="293" width="426.2" height="134.9" id="SVGID_1_">
						<g class="st8">
							<g>
								<defs>
									<rect id="SVGID_4_" x="63" y="288.6" width="445" height="139.2"/>
								</defs>
								<clipPath id="SVGID_5_" class="st9">
									<use xlink:href="#SVGID_4_"  style="overflow:visible;"/>
								</clipPath>
								<g style="clip-path:url(#SVGID_5_);">
									
										<image style="overflow:visible;" width="927" height="290" xlink:href="47C498DA1C64D1C0.jpg"  transform="matrix(0.48 0 0 0.48 63 288.6328)">
									</image>
								</g>
							</g>
						</g>
					</mask>
					<rect x="71.6" y="293" class="st10" width="426.2" height="134.9"/>
					<defs>
						<filter id="Adobe_OpacityMaskFilter_2_" filterUnits="userSpaceOnUse" x="82.2" y="296.3" width="417.6" height="131.5">
							<feColorMatrix  type="matrix" values="1 0 0 0 0  0 1 0 0 0  0 0 1 0 0  0 0 0 1 0"/>
						</filter>
					</defs>
					<mask maskUnits="userSpaceOnUse" x="82.2" y="296.3" width="417.6" height="131.5" id="SVGID_6_">
						<g class="st11">
							<g>
								<defs>
									<rect id="SVGID_7_" x="63" y="288.6" width="445" height="139.2"/>
								</defs>
								<clipPath id="SVGID_8_" class="st9">
									<use xlink:href="#SVGID_7_"  style="overflow:visible;"/>
								</clipPath>
								<g style="clip-path:url(#SVGID_8_);">
									
										<image style="overflow:visible;" width="927" height="290" xlink:href="47C498DA1C64D1C1.jpg"  transform="matrix(0.48 0 0 0.48 63 288.6328)">
									</image>
								</g>
							</g>
						</g>
					</mask>
					<rect x="82.2" y="296.3" class="st12" width="417.6" height="131.5"/>
				</g>
			</g>
		</g>
	</g>
</g>
</svg>
